<svg width="205" height="45" viewBox="0 0 205 45" fill="none" xmlns="http://www.w3.org/2000/svg">
<path d="M44.6993 18.1316V0H30.6985L22.3513 16.2504L14.0008 0H0V18.1316H5.92658V5.92329H10.383L19.0196 22.7328L10.9158 38.503H6.14364L5.92658 25.4461L0 25.5481L0.315731 44.4296H14.5336L22.3513 29.2152L30.169 44.4296H44.3836L44.6993 25.5481L38.7727 25.4461L38.5556 38.503H33.7835L25.6796 22.7328L34.3163 5.92329H38.7727V18.1316H44.6993Z" fill="#004A4C"/>
<path d="M201.482 14.2726C200.545 14.2726 199.789 14.0084 199.212 13.4799C198.66 12.9273 198.383 12.2066 198.383 11.3178C198.383 10.4289 198.66 9.72023 199.212 9.19172C199.789 8.63918 200.545 8.36292 201.482 8.36292C202.419 8.36292 203.164 8.63918 203.716 9.19172C204.293 9.72023 204.581 10.4289 204.581 11.3178C204.581 12.2066 204.293 12.9273 203.716 13.4799C203.164 14.0084 202.419 14.2726 201.482 14.2726ZM199.032 15.9663H203.933V33.9477H199.032V15.9663Z" fill="#004A4C"/>
<path d="M193.918 33.9477C191.78 33.9477 190.207 33.5033 189.198 32.6144C188.213 31.7015 187.72 30.2962 187.72 28.3983V8.72327H192.621V28.11C192.621 28.6866 192.753 29.107 193.017 29.3713C193.282 29.6355 193.702 29.7677 194.279 29.7677H196.224V33.9477H193.918Z" fill="#004A4C"/>
<path d="M172.274 34.236C170.376 34.236 168.851 33.5994 167.697 32.3262C166.544 31.0289 165.968 29.3353 165.968 27.2452V15.9663H170.869V27.3173C170.869 28.1101 171.061 28.7587 171.445 29.2632C171.853 29.7437 172.382 29.9839 173.031 29.9839H175.121C175.913 29.9839 176.634 29.6596 177.283 29.0109C177.931 28.3383 178.388 27.4614 178.652 26.3804V15.9663H183.553V33.9477H179.012V31.6415C178.46 32.4102 177.775 33.0348 176.958 33.5153C176.166 33.9958 175.397 34.236 174.652 34.236H172.274Z" fill="#004A4C"/>
<path d="M154.188 20.1463H151.089V15.9663H154.188V14.7771C154.188 12.8312 154.8 11.3178 156.026 10.2367C157.275 9.13164 159.005 8.5791 161.215 8.5791H163.809V12.7592H161.287C160.518 12.7592 159.953 12.9273 159.593 13.2636C159.257 13.6 159.089 14.1285 159.089 14.8492V15.9663H163.413V20.1463H159.089V33.9477H154.188V20.1463Z" fill="#004A4C"/>
<path d="M144.974 33.9477L139.353 26.7407L137.443 28.6506V33.9477H132.542V8.72327H137.443V23.1372L144.542 15.9663H150.235L142.524 23.6057L150.523 33.9477H144.974Z" fill="#004A4C"/>
<path d="M119.333 34.236C117.819 34.236 116.474 33.9357 115.297 33.3351C114.144 32.7345 113.243 31.8937 112.594 30.8126C111.97 29.7316 111.657 28.4824 111.657 27.065V22.8489C111.657 21.4316 111.97 20.1823 112.594 19.1013C113.243 18.0202 114.144 17.1794 115.297 16.5789C116.45 15.9783 117.783 15.678 119.297 15.678H122.143C123.585 15.678 124.858 15.9663 125.963 16.5428C127.068 17.1194 127.921 17.9362 128.522 18.9932C129.122 20.0262 129.422 21.2274 129.422 22.5967H124.558C124.558 21.7799 124.33 21.1313 123.873 20.6508C123.441 20.1463 122.864 19.8941 122.143 19.8941H119.369C118.528 19.8941 117.843 20.2064 117.315 20.831C116.81 21.4316 116.558 22.2243 116.558 23.2093V26.7047C116.558 27.6896 116.822 28.4944 117.351 29.119C117.879 29.7196 118.564 30.0199 119.405 30.0199H122.179C122.948 30.0199 123.561 29.7436 124.017 29.1911C124.498 28.6385 124.738 27.9058 124.738 26.9929H129.603C129.603 29.1791 128.918 30.9328 127.549 32.254C126.203 33.5753 124.414 34.236 122.179 34.236H119.333Z" fill="#004A4C"/>
<path d="M97.0274 34.236C95.1536 34.236 93.6401 33.7675 92.487 32.8306C91.3339 31.8937 90.7573 30.6565 90.7573 29.119V27.7857C90.7573 26.2722 91.3579 25.0591 92.5591 24.1462C93.7602 23.2093 95.3458 22.7408 97.3157 22.7408H99.5138C100.138 22.7408 100.811 22.8249 101.532 22.9931C102.252 23.1612 102.913 23.3894 103.514 23.6777V21.8039C103.514 21.2033 103.309 20.7229 102.901 20.3625C102.517 19.9781 102 19.786 101.352 19.786H98.2526C97.5799 19.786 97.0394 19.9421 96.631 20.2544C96.2226 20.5667 96.0184 20.9871 96.0184 21.5156H91.2618C91.2618 19.7619 91.8984 18.3566 93.1717 17.2995C94.4689 16.2185 96.1626 15.678 98.2526 15.678H101.352C103.466 15.678 105.171 16.2425 106.469 17.3716C107.766 18.4767 108.414 19.9541 108.414 21.8039V33.9477H103.874V31.7856C103.297 32.5303 102.589 33.1309 101.748 33.5873C100.907 34.0197 100.078 34.236 99.2616 34.236H97.0274ZM99.6219 30.4883C100.511 30.4883 101.304 30.2601 102 29.8037C102.697 29.3472 103.201 28.7346 103.514 27.9659V27.3533C103.129 27.065 102.589 26.8368 101.892 26.6686C101.219 26.5005 100.499 26.4164 99.73 26.4164H97.4598C96.8833 26.4164 96.4148 26.5605 96.0545 26.8488C95.6941 27.1371 95.5139 27.5215 95.5139 28.0019V28.9388C95.5139 29.3953 95.7061 29.7676 96.0905 30.0559C96.4989 30.3442 97.0274 30.4883 97.676 30.4883H99.6219Z" fill="#004A4C"/>
<path d="M78.1025 15.9662H82.6429V18.2725C83.0994 17.5758 83.748 17.0112 84.5888 16.5788C85.4537 16.1224 86.3545 15.8942 87.2914 15.8942H89.7418V20.1463H87.2914C86.0182 20.1463 84.9852 20.5307 84.1924 21.2994C83.3997 22.0681 83.0033 23.0531 83.0033 24.2543V33.9477H78.1025V15.9662Z" fill="#004A4C"/>
<path d="M66.427 13.0475H58.4272V8.72327H79.3996V13.0475H71.3998V33.9477H66.427V13.0475Z" fill="#004A4C"/>
</svg>
